<?xml version="1.0" encoding="UTF-8" standalone="no"?>
<!-- Created with Inkscape (http://www.inkscape.org/) -->

<svg
   xmlns:dc="http://purl.org/dc/elements/1.1/"
   xmlns:cc="http://creativecommons.org/ns#"
   xmlns:rdf="http://www.w3.org/1999/02/22-rdf-syntax-ns#"
   xmlns:svg="http://www.w3.org/2000/svg"
   xmlns="http://www.w3.org/2000/svg"
   xmlns:sodipodi="http://sodipodi.sourceforge.net/DTD/sodipodi-0.dtd"
   xmlns:inkscape="http://www.inkscape.org/namespaces/inkscape"
   width="480"
   height="480"
   viewBox="0 0 127 127"
   version="1.1"
   id="svg8"
   inkscape:version="0.92.2 5c3e80d, 2017-08-06"
   sodipodi:docname="king_back.svg">
  <defs
     id="defs2" />
  <sodipodi:namedview
     id="base"
     pagecolor="#ffffff"
     bordercolor="#666666"
     borderopacity="1.0"
     inkscape:pageopacity="0.0"
     inkscape:pageshadow="2"
     inkscape:zoom="1.4"
     inkscape:cx="46.85731"
     inkscape:cy="277.0591"
     inkscape:document-units="mm"
     inkscape:current-layer="layer1"
     showgrid="false"
     units="px"
     inkscape:window-width="1920"
     inkscape:window-height="956"
     inkscape:window-x="1280"
     inkscape:window-y="0"
     inkscape:window-maximized="1" />
  <metadata
     id="metadata5">
    <rdf:RDF>
      <cc:Work
         rdf:about="">
        <dc:format>image/svg+xml</dc:format>
        <dc:type
           rdf:resource="http://purl.org/dc/dcmitype/StillImage" />
        <dc:title></dc:title>
      </cc:Work>
    </rdf:RDF>
  </metadata>
  <g
     inkscape:label="Layer 1"
     inkscape:groupmode="layer"
     id="layer1"
     transform="translate(0,-169.99998)">
    <path
       style="fill:#abd400;fill-opacity:1;fill-rule:evenodd;stroke:#000000;stroke-width:1.26467299;stroke-linecap:butt;stroke-linejoin:miter;stroke-miterlimit:4;stroke-dasharray:none;stroke-opacity:1"
       d="m 85.006862,171.50256 -1.1949,32.15345 c -8.258473,-18.52162 -31.224611,-15.98469 -36.907107,0 l -1.472627,-31.79033 c 1.446817,-0.0136 2.652136,13.70512 4.110726,13.69161 1.76713,-0.0164 3.789506,-13.76498 5.563186,-13.78119 1.661289,-0.0152 3.073836,13.70198 4.730894,13.68694 1.889789,-0.0172 4.022721,-13.7665 5.893573,-13.78344 2.151604,-0.0195 4.036915,13.6935 6.143114,13.67435 2.021131,-0.0184 4.265375,-13.7689 6.225044,-13.78696 1.034127,-0.009 1.809322,13.7133 2.82224,13.70387 1.298524,-0.0121 2.827492,-13.75638 4.085857,-13.7683 z"
       id="path6486"
       inkscape:connector-curvature="0"
       sodipodi:nodetypes="ccccsssssssc" />
    <path
       style="fill:#008000;fill-rule:evenodd;stroke:#000000;stroke-width:1.87270093;stroke-linecap:butt;stroke-linejoin:miter;stroke-miterlimit:4;stroke-dasharray:none;stroke-opacity:1"
       d="m 79.250466,194.84422 c -15.761043,-11.40617 -21.759657,-3.64392 -29.70104,0.30374 l -8.353418,-8.20092 c -3.477931,10.38015 -6.361105,21.03331 0.928158,30.67755 18.917641,25.06567 33.277568,13.58947 47.33603,-0.30374 6.823306,-9.62206 11.280274,-19.34512 -0.61877,-29.76633 z"
       id="path812"
       inkscape:connector-curvature="0"
       sodipodi:nodetypes="ccccccc" />
    <path
       style="fill:#008000;fill-rule:evenodd;stroke:#000000;stroke-width:2.04173255;stroke-linecap:butt;stroke-linejoin:miter;stroke-miterlimit:4;stroke-dasharray:none;stroke-opacity:1"
       d="m 89.404907,235.10338 c -13.663003,-9.49248 -28.7517,-13.89527 -48.785446,-0.64432 -28.337311,32.56949 -11.336827,37.93069 7.656911,11.81264 l -3.062765,40.37775 c 4.488073,5.62322 8.47363,15.09453 15.751353,-0.64433 l 4.15661,-16.32292 2.843994,16.10815 c 4.478483,8.69265 9.685642,12.2346 17.063966,0.42955 l -3.71907,-41.23686 c 21.33392,33.68648 31.52058,21.03543 8.094447,-9.87966 z"
       id="path885"
       inkscape:connector-curvature="0"
       sodipodi:nodetypes="cccccccccc" />
  </g>
</svg>
